<svg width="60" height="60" viewBox="0 0 60 60" fill="none" xmlns="http://www.w3.org/2000/svg">
<path d="M24 21.6995L38.9409 30L24 38.3005L24 21.6995Z" stroke="#319559" stroke-width="2"/>
<path fill-rule="evenodd" clip-rule="evenodd" d="M39.969 9.26687L46.2911 20.217C46.4094 20.4136 46.5242 20.6125 46.6355 20.8136L49.63 26.0001L51.7124 22.3933C49.6895 16.6189 45.4282 11.8966 39.969 9.26687ZM34.2698 7.39558C32.8862 7.13585 31.459 7 30 7C25.1907 7 20.7261 8.47611 17.0346 11H29.9999H36.3508L34.2698 7.39558ZM52.9362 28.2736L46.6318 39.1931C46.5229 39.3897 46.4106 39.5842 46.295 39.7765L43.2792 45H47.4361C50.9037 40.9729 53 35.7312 53 30C53 29.4193 52.9785 28.8435 52.9362 28.2736ZM42.9654 49H29.9999H23.6493L25.7303 52.6044C27.1139 52.8642 28.5411 53 30 53C34.8093 53 39.2739 51.5239 42.9654 49ZM20.0312 50.7332L13.7158 39.7947C13.5927 39.5904 13.4733 39.3836 13.3577 39.1744L10.3702 34L8.28773 37.607C10.3107 43.3813 14.572 48.1036 20.0312 50.7332ZM7.06385 31.7268L13.3586 20.824C13.4736 20.6159 13.5924 20.4101 13.7149 20.2068L16.7211 15H12.5639C9.09626 19.0271 7 24.2688 7 30C7 30.5809 7.02153 31.1567 7.06385 31.7268Z" fill="#7981FB"/>
</svg>
