<svg width="60" height="61" viewBox="0 0 60 61" fill="none" xmlns="http://www.w3.org/2000/svg">
<path d="M53.2655 7.03274C47.0649 1.53147 38.859 0.298614 31.205 0.298614H28.7763C20.8462 0.298614 12.585 1.64168 6.73416 7.03274C1.25101 13.2333 0 21.4578 0 29.1115V31.4669C0 39.3786 1.34312 47.7134 6.73416 53.5641C12.9715 59.0841 21.2327 60.2986 28.9235 60.2986H31.0577C39.0063 60.2986 47.378 58.9735 53.2655 53.5641C58.7855 47.3267 60 39.0474 60 31.3564V29.2222C60 21.2738 58.6749 12.9022 53.2655 7.03274Z" fill="#FBFCFD"/>
<path d="M29.9968 36.191C27.2591 36.191 25.0321 34.0138 25.0321 31.3373C25.0321 28.661 27.2591 26.4834 29.9968 26.4834C32.7342 26.4834 34.9615 28.661 34.9615 31.3373C34.9615 34.0138 32.7342 36.191 29.9968 36.191ZM26.6117 14.5751C26.6117 12.7502 28.1302 11.2657 29.9968 11.2657C31.8635 11.2657 33.3819 12.7502 33.3819 14.5751C33.3819 16.4 31.8635 17.8845 29.9968 17.8845C28.1302 17.8845 26.6117 16.4 26.6117 14.5751ZM16.9103 27.18C16.4556 28.5483 15.1627 29.4683 13.6927 29.4683C13.3383 29.4683 12.9857 29.4133 12.6446 29.3048C10.8695 28.7407 9.89465 26.8701 10.4717 25.1342C10.9266 23.7659 12.2202 22.8466 13.6906 22.8466C14.0445 22.8466 14.3961 22.9017 14.737 23.0097C15.5967 23.2828 16.2964 23.8673 16.7071 24.6553C17.1174 25.4434 17.1898 26.3398 16.9103 27.18ZM37.6696 31.3373C37.6696 27.5768 35.0486 24.5368 31.3519 24.0004V20.0294C33.9237 19.5166 35.6385 17.239 35.6385 14.5751C35.6385 11.5335 33.1077 9.05929 29.9968 9.05929C26.8859 9.05929 24.3551 11.5335 24.3551 14.5751C24.3551 17.239 26.5236 19.5166 29.0952 20.0294V24.0004C26.579 24.3655 24.2347 25.8501 23.1363 27.9979L19.2978 26.7784C19.4235 25.7124 19.2277 24.6333 18.7178 23.6546C18.0338 22.3414 16.8674 21.3668 15.4344 20.9118C14.8683 20.7314 14.2816 20.6401 13.6906 20.6401C11.2394 20.6401 9.08335 22.1723 8.32527 24.4526C7.36393 27.3452 8.98907 30.4632 11.9473 31.4032C12.5141 31.5829 13.1012 31.6746 13.6927 31.6746C15.7581 31.6746 17.6106 30.583 18.5967 28.8754L22.4382 30.0957C22.3687 30.5004 22.324 30.9134 22.324 31.3373C22.324 35.4739 25.7658 38.8388 29.9968 38.8388C34.2276 38.8388 37.6696 35.4739 37.6696 31.3373ZM49.3183 27.6589C48.9078 28.4474 48.2085 29.0314 47.3477 29.3048C47.0068 29.4129 46.6548 29.468 46.3015 29.468C44.8312 29.468 43.5372 28.5483 43.0823 27.18C42.5059 25.4446 43.4813 23.5737 45.2562 23.0097C45.5975 22.9017 45.9495 22.8466 46.3037 22.8466C47.7732 22.8466 49.0671 23.7664 49.5221 25.1351C49.801 25.9749 49.7288 26.8713 49.3183 27.6589ZM51.6687 24.4531C50.91 22.1723 48.754 20.6401 46.3037 20.6401C45.7129 20.6401 45.1259 20.7314 44.5591 20.9118C41.9678 21.7348 40.4 24.229 40.6959 26.7792L39.1143 27.2818L39.8116 29.3802L41.3966 28.8762C42.3834 30.5833 44.2361 31.6743 46.3015 31.6743C46.8923 31.6743 47.4793 31.5829 48.0449 31.4032C49.4789 30.9479 50.6451 29.9739 51.3295 28.6606C52.013 27.3477 52.1334 25.8535 51.6687 24.4531ZM42.0635 47.5754C41.4817 47.9886 40.795 48.2073 40.0778 48.2073C38.9953 48.2073 37.9701 47.6975 37.3355 46.8432C36.2383 45.3674 36.5742 43.2929 38.0839 42.2199C38.6669 41.8061 39.3536 41.5876 40.0703 41.5876C41.1524 41.5876 42.1777 42.0977 42.8127 42.9525C43.9093 44.4288 43.5735 46.5032 42.0635 47.5754ZM40.0703 39.3811C39.2558 39.3811 38.4669 39.5542 37.7388 39.8793L36.7595 38.5618L34.9339 39.8587L35.9113 41.1741C34.1391 43.0674 33.9085 45.986 35.5098 48.1397C36.5677 49.5636 38.2749 50.4136 40.0778 50.4136C41.2749 50.4136 42.42 50.0492 43.3903 49.3602C45.9064 47.5734 46.4664 44.117 44.6385 41.6556C43.5804 40.2313 41.8723 39.3811 40.0703 39.3811ZM22.6577 46.8432C22.0226 47.698 20.9974 48.2081 19.9158 48.2081C19.1993 48.2081 18.5119 47.9889 17.9292 47.5751C16.4192 46.5027 16.0833 44.4288 17.1806 42.9525C17.8151 42.0981 18.8405 41.5883 19.9228 41.5883C20.6403 41.5883 21.327 41.8066 21.909 42.2204C23.419 43.2929 23.7547 45.3669 22.6577 46.8432ZM25.0587 39.8579L23.2331 38.5613L22.2539 39.8793C21.5259 39.5542 20.7369 39.382 19.9228 39.382C18.1203 39.382 16.4127 40.2322 15.3547 41.6559C13.5266 44.116 14.0864 47.5724 16.6026 49.3602C17.5736 50.0497 18.719 50.4142 19.9158 50.4142C21.7173 50.4142 23.4245 49.5644 24.4833 48.1402C26.0851 45.9849 25.8541 43.0661 24.0815 41.1733L25.0587 39.8579Z" fill="url(#paint0_linear_1_878)"/>
<defs>
<linearGradient id="paint0_linear_1_878" x1="44.3925" y1="16.7486" x2="15.1669" y2="48.0891" gradientUnits="userSpaceOnUse">
<stop stop-color="#00B5CB"/>
<stop offset="1" stop-color="#2370E1"/>
</linearGradient>
</defs>
</svg>
